<?xml version="1.0" standalone="no"?>
<!DOCTYPE svg PUBLIC "-//W3C//DTD SVG 20010904//EN"
 "http://www.w3.org/TR/2001/REC-SVG-20010904/DTD/svg10.dtd">
<svg version="1.0" xmlns="http://www.w3.org/2000/svg"
 width="1249.000000pt" height="1249.000000pt" viewBox="0 0 1249.000000 1249.000000"
 preserveAspectRatio="xMidYMid meet">
<metadata>
Created by potrace 1.11, written by Peter Selinger 2001-2013
</metadata>
<g transform="translate(0.000000,1249.000000) scale(0.100000,-0.100000)"
fill="#000000" stroke="none">
<path d="M4269 11771 c-24 -15 -60 -45 -79 -65 -34 -36 -35 -39 -32 -111 2
-73 2 -74 -38 -120 -63 -72 -71 -114 -81 -410 -4 -143 -12 -287 -18 -320 -9
-59 -51 -188 -65 -202 -4 -4 -22 -41 -41 -83 -19 -41 -40 -82 -45 -90 -6 -8
-35 -67 -65 -130 -30 -63 -61 -126 -68 -140 -19 -39 -72 -58 -192 -70 -60 -6
-137 -15 -170 -20 -33 -5 -98 -14 -145 -19 -47 -6 -137 -17 -200 -25 -63 -8
-149 -18 -190 -21 -41 -3 -100 -10 -130 -15 -30 -6 -82 -12 -115 -15 -121 -9
-222 -25 -299 -45 -124 -32 -160 -26 -228 35 -21 19 -46 35 -56 35 -31 0 -116
-48 -152 -85 l-35 -36 0 -117 c0 -112 -2 -120 -34 -187 -59 -124 -72 -172
-117 -425 -34 -193 -44 -262 -49 -340 -2 -36 -8 -123 -14 -195 -34 -470 -34
-475 -21 -594 7 -64 14 -138 16 -166 1 -27 7 -72 13 -100 6 -27 15 -84 20
-125 5 -41 16 -93 24 -116 8 -22 20 -73 26 -113 6 -40 18 -86 26 -101 29 -55
20 -83 -53 -172 -81 -98 -87 -109 -97 -168 -4 -25 -14 -54 -21 -65 -10 -13
-14 -51 -14 -123 0 -119 -9 -148 -73 -226 -93 -114 -149 -146 -259 -146 -74 0
-120 -17 -138 -50 -20 -37 9 -182 50 -254 12 -20 20 -61 23 -116 3 -59 14
-112 36 -175 39 -112 71 -237 71 -281 0 -18 -13 -54 -29 -81 -16 -26 -41 -70
-57 -97 -16 -26 -33 -56 -39 -65 -5 -9 -50 -63 -99 -119 -104 -119 -147 -142
-267 -142 -119 0 -425 -88 -551 -158 -103 -57 -178 -112 -190 -138 -17 -37 6
-75 101 -170 76 -76 146 -131 256 -199 18 -11 60 -46 94 -78 34 -31 66 -57 72
-57 14 0 106 -69 112 -84 5 -12 198 -146 211 -146 3 0 38 -25 78 -55 39 -30
76 -55 81 -55 6 0 31 -19 57 -42 63 -57 127 -108 170 -138 19 -13 56 -41 81
-62 25 -21 49 -38 54 -38 8 0 83 -49 150 -100 22 -16 49 -34 60 -39 11 -5 29
-18 39 -30 11 -11 24 -21 29 -21 6 0 25 -11 43 -25 18 -14 36 -25 39 -25 4 0
20 -11 37 -25 16 -14 37 -25 47 -25 9 0 21 -4 26 -9 13 -13 161 -86 210 -104
22 -8 63 -24 90 -35 87 -35 108 -40 198 -52 68 -8 96 -8 123 2 30 11 37 10 61
-8 25 -19 29 -32 49 -165 12 -79 27 -162 34 -184 7 -22 14 -49 16 -60 11 -67
27 -120 59 -193 19 -46 35 -88 35 -93 0 -33 86 -199 133 -255 20 -26 37 -50
37 -55 0 -5 13 -15 29 -24 16 -8 32 -24 36 -34 8 -26 98 -90 160 -114 27 -10
86 -27 130 -37 44 -11 103 -26 130 -34 154 -46 300 -76 421 -86 60 -5 133 -14
163 -20 91 -17 201 -13 239 10 37 23 39 37 13 89 -28 54 -23 177 10 248 21 47
28 53 55 53 21 0 39 -9 59 -30 25 -26 28 -35 26 -94 -1 -36 6 -94 15 -128 9
-35 17 -87 19 -115 2 -42 9 -60 34 -88 17 -20 31 -39 31 -44 0 -4 -13 -28 -29
-52 -32 -48 -30 -66 14 -95 46 -30 259 -78 306 -68 14 2 45 0 70 -5 24 -5 123
-13 219 -17 96 -4 189 -8 205 -9 17 -2 84 -6 150 -10 158 -10 196 -13 345 -25
181 -14 866 -23 915 -11 22 5 101 21 175 36 74 14 162 35 195 46 33 12 83 27
110 35 28 9 91 29 140 46 120 41 184 41 234 -2 20 -17 63 -44 95 -60 33 -16
66 -36 75 -43 9 -7 41 -24 71 -37 30 -14 90 -44 133 -67 42 -24 81 -43 86 -43
5 0 51 -24 103 -53 52 -29 114 -61 138 -71 25 -10 54 -26 65 -36 11 -10 42
-24 69 -30 27 -6 85 -28 130 -49 44 -22 99 -42 120 -47 22 -4 55 -16 73 -27
18 -10 40 -16 48 -13 18 7 43 -3 235 -94 103 -48 244 -87 319 -89 92 -2 113
11 136 79 14 43 25 56 73 89 32 21 67 41 80 46 14 4 31 23 42 48 10 23 34 58
54 76 20 19 36 40 36 46 0 6 11 22 25 35 14 13 25 29 25 36 0 6 15 23 34 37
18 14 41 42 50 61 9 19 31 46 49 60 70 55 71 56 53 74 -13 13 -19 14 -40 3
-47 -26 -60 9 -25 66 20 32 25 35 58 29 38 -6 71 14 71 43 0 37 23 94 51 125
16 19 29 37 29 40 0 4 10 20 21 35 16 22 22 46 24 102 1 41 3 80 4 86 0 7 17
31 37 53 35 39 60 110 68 200 2 20 13 54 25 75 11 22 21 45 21 52 0 6 6 24 14
40 8 15 22 48 31 73 10 25 24 57 31 72 8 15 23 55 34 89 11 33 31 87 44 118
13 31 34 88 46 126 13 39 33 95 45 125 12 30 30 89 39 130 10 41 21 82 25 91
5 8 21 60 36 115 15 54 38 135 51 179 12 44 28 112 33 151 6 39 19 93 30 120
19 48 54 189 67 269 9 54 40 115 73 142 14 12 29 22 32 23 8 0 115 64 134 80
8 7 37 27 64 44 27 17 89 58 138 92 48 33 112 73 141 89 29 16 82 56 117 89
57 56 65 68 90 145 14 47 40 105 57 130 45 66 223 248 416 425 167 154 389
376 417 420 20 30 6 108 -25 141 -24 26 -105 67 -179 92 -25 8 -68 25 -96 38
-27 13 -76 31 -107 40 -32 9 -60 20 -63 25 -3 5 -31 16 -63 25 -85 24 -243 88
-272 111 -8 6 -40 22 -70 35 -30 12 -81 41 -114 63 -32 23 -70 47 -85 55 -14
7 -35 22 -46 32 -11 10 -37 25 -58 34 -20 8 -37 20 -37 25 0 5 -26 22 -57 36
-32 15 -73 40 -91 56 -18 15 -44 28 -57 28 -29 0 -58 39 -49 66 3 10 19 47 35
81 16 34 29 66 29 71 0 5 10 22 23 38 12 16 45 73 72 128 28 54 57 102 65 106
8 4 31 15 51 25 32 15 42 15 73 4 63 -23 100 23 99 121 0 47 4 60 30 89 29 34
29 36 23 110 -16 176 -29 236 -67 298 -34 54 -67 63 -233 63 -128 0 -146 2
-155 18 -11 22 -3 68 15 83 8 6 14 17 14 25 0 7 17 25 38 40 115 84 289 313
316 414 8 30 21 69 30 86 22 43 41 289 27 342 -6 21 -27 57 -47 80 -33 39 -39
42 -87 42 -29 -1 -70 -7 -92 -15 -22 -8 -47 -15 -55 -15 -8 0 -44 -11 -80 -24
-36 -14 -126 -47 -200 -75 -74 -27 -153 -59 -175 -69 -54 -26 -285 -103 -427
-142 -79 -22 -121 -29 -133 -23 -31 17 -154 167 -184 223 -31 58 -150 179
-250 255 -129 98 -119 80 -157 285 -15 80 -86 312 -118 383 -18 40 -43 121
-51 167 -30 167 -126 407 -211 530 -36 52 -90 132 -120 177 -79 117 -249 267
-365 320 -36 17 -82 45 -101 62 -20 17 -39 31 -43 31 -4 0 -23 14 -42 30 -18
17 -39 30 -46 30 -11 0 -31 9 -127 55 -14 7 -46 15 -71 19 -57 8 -89 32 -168
123 -34 40 -70 77 -81 83 -10 5 -49 14 -85 19 -61 9 -70 8 -96 -11 -17 -13
-41 -21 -61 -20 -18 1 -67 4 -108 7 -136 9 -270 4 -368 -15 -114 -22 -207 -47
-242 -65 -14 -7 -65 -25 -115 -40 -133 -41 -315 -112 -418 -165 -50 -26 -208
-28 -294 -4 -130 36 -146 38 -203 21 -30 -9 -91 -18 -135 -21 -49 -3 -117 -17
-175 -35 -52 -17 -108 -31 -124 -31 -44 0 -204 -58 -269 -98 -38 -23 -74 -37
-108 -40 l-50 -5 -156 154 c-85 85 -211 222 -280 304 -169 204 -176 214 -205
265 -14 25 -38 65 -55 90 -16 25 -42 77 -58 115 -52 126 -101 151 -186 96z"/>
</g>
</svg>
